#!OML:ASF F:\VICON\USERDATA\INSTALL\rory3\rory3.ASF
:FULLY-SPECIFIED
:DEGREES
386
root 0.241283 17.9203 34.6831 -4.41445 -4.10669 -7.00182
lowerback 15.5969 0.76459 6.1041
upperback 0.683859 2.421 3.94489
thorax -7.96406 1.01939 0.245757
lowerneck -12.2938 -0.610088 -2.45811
upperneck 31.2762 0.248978 -1.54335
head 12.3716 -0.37278 -0.12263
rclavicle 5.09386e-015 1.35174e-014
rhumerus -26.3691 -3.64691 -75.6959
rradius 37.903
rwrist -3.25866
rhand -14.0454 9.22908
rfingers 7.12502
rthumb 12.0853 -20.4019
lclavicle 5.09386e-015 1.35174e-014
lhumerus -40.8564 1.87722 89.3553
lradius 41.9198
lwrist 6.87017
lhand -12.8798 50.7298
lfingers 7.12502
lthumb 13.2091 80.2913
rfemur 11.3148 6.757 35.7292
rtibia 20.3295
rfoot -17.5454 -11.6319
rtoes 3.8855
lfemur -26.022 -14.1901 -7.46962
ltibia 18.0987
lfoot -16.6867 18.0191
ltoes -15.1963
387
root 0.250323 17.9104 34.8558 -4.39457 -4.1333 -7.24447
lowerback 15.7477 0.740517 6.34878
upperback 0.437543 2.47334 4.02842
thorax -8.31046 1.02491 0.185321
lowerneck -12.2714 -0.597622 -2.13882
upperneck 31.6137 0.30973 -1.91551
head 12.5059 -0.360017 -0.313903
rclavicle -1.50579e-014 -4.45278e-014
rhumerus -26.7763 -3.88801 -75.5667
rradius 37.6054
rwrist -2.86482
rhand -13.935 9.37498
rfingers 7.12502
rthumb 12.1918 -20.2497
lclavicle -1.50579e-014 -4.45278e-014
lhumerus -41.3693 1.96517 89.284
lradius 41.6996
lwrist 6.57892
lhand -12.6241 50.7663
lfingers 7.12502
lthumb 13.4555 80.3116
rfemur 11.9273 6.78557 36.0021
rtibia 20.3806
rfoot -17.4247 -11.5259
rtoes 3.30605
lfemur -26.1195 -12.6585 -7.82474
ltibia 18.7031
lfoot -15.7979 16.5966
ltoes -14.4983
388
root 0.255959 17.8938 35.0101 -4.52749 -4.28828 -7.74433
lowerback 16.6679 0.717439 6.78483
upperback -0.13475 2.67633 4.17435
thorax -9.44347 1.06722 0.0396375
lowerneck -11.6489 -0.582449 -1.90128
upperneck 31.9551 0.359088 -2.2287
head 12.5159 -0.350621 -0.468775
rclavicle 1.75179e-014 5.56597e-015
rhumerus -27.8468 -4.09706 -75.3905
rradius 37.4027
rwrist -2.4015
rhand -13.8107 9.23955
rfingers 7.12502
rthumb 12.3116 -20.378
lclavicle 1.75179e-014 5.56597e-015
lhumerus -42.5287 1.96301 89.2035
lradius 41.6787
lwrist 6.52897
lhand -12.535 50.8423
lfingers 7.12502
lthumb 13.5414 80.382
rfemur 12.5754 7.08537 36.703
rtibia 20.5041
rfoot -17.2745 -11.6176
rtoes 3.16793
lfemur -26.1206 -10.5426 -8.03438
ltibia 19.479
lfoot -14.7663 14.9392
ltoes -14.8143
389
root 0.275312 17.8588 35.1483 -4.19151 -3.95759 -7.83829
lowerback 16.7048 0.565948 6.96184
upperback -0.42585 2.54043 4.18843
thorax -9.78857 0.980519 -0.00950455
lowerneck -9.93215 -0.894595 -3.29314
upperneck 31.2166 -0.189395 -1.14228
head 11.8622 -0.606742 0.123472
rclavicle 9.05713e-015 2.8625e-014
rhumerus -28.0863 -4.37633 -75.3329
rradius 37.0707
rwrist -1.91891
rhand -13.8073 9.31069
rfingers 7.12502
rthumb 12.3149 -20.3067
lclavicle 9.05713e-015 2.8625e-014
lhumerus -42.7892 2.20937 89.0488
lradius 41.5167
lwrist 6.52913
lhand -12.5418 50.6794
lfingers 7.12502
lthumb 13.5348 80.2196
rfemur 12.4057 6.96726 36.7255
rtibia 20.9609
rfoot -17.2581 -11.5476
rtoes 2.80809
lfemur -26.877 -8.65777 -8.72435
ltibia 20.4199
lfoot -13.6507 12.8809
ltoes -16.0848
390
root 0.293736 17.849 35.3386 -4.20045 -3.8244 -7.42752
lowerback 16.2627 0.54324 6.6534
upperback -0.27946 2.38104 4.06808
thorax -9.38614 0.930166 0.0752358
lowerneck -11.4521 -0.588036 -2.44628
upperneck 31.8924 0.28349 -1.62329
head 12.4473 -0.370811 -0.151664
rclavicle -3.60297e-015 -1.98785e-014
rhumerus -27.921 -4.71333 -75.3225
rradius 36.6264
rwrist -1.61559
rhand -13.8267 9.58839
rfingers 7.12502
rthumb 12.2962 -20.0301
lclavicle -3.60297e-015 -1.98785e-014
lhumerus -42.6361 2.42902 88.8973
lradius 41.2766
lwrist 6.38623
lhand -12.5349 50.5404
lfingers 7.12502
lthumb 13.5415 80.0801
rfemur 12.753 6.76782 36.171
rtibia 21.6575
rfoot -17.4181 -11.3781
rtoes 1.53466
lfemur -26.8021 -7.49927 -9.85091
ltibia 21.1877
lfoot -13.1499 11.2937
ltoes -17.9435
391
root 0.301515 17.831 35.5065 -4.39178 -4.10172 -7.64924
lowerback 16.2385 0.573469 6.75521
upperback -0.048912 2.4294 4.18257
thorax -9.11718 0.961719 0.129842
lowerneck -11.653 -0.528164 -2.23617
upperneck 31.8067 0.402351 -1.87175
head 12.4548 -0.324785 -0.266764
rclavicle -6.08778e-015 -2.06736e-014
rhumerus -27.6915 -5.07746 -75.2956
rradius 36.2681
rwrist -1.25782
rhand -13.8653 9.76541
rfingers 7.12502
rthumb 12.259 -19.8553
lclavicle -6.08778e-015 -2.06736e-014
lhumerus -42.5371 2.67629 88.7796
lradius 41.1498
lwrist 6.25702
lhand -12.5656 50.4728
lfingers 7.12502
lthumb 13.5119 80.0145
rfemur 13.1956 7.06334 36.5641
rtibia 22.4574
rfoot -17.1964 -11.5802
rtoes 0.110356
lfemur -26.4439 -7.04276 -9.82292
ltibia 21.6648
lfoot -12.6178 10.1709
ltoes -18.8189
392
root 0.310158 17.8153 35.6539 -4.58097 -4.47577 -7.94686
lowerback 16.5068 0.663841 6.98766
upperback 0.103166 2.6176 4.28753
thorax -9.08911 1.04602 0.0645974
lowerneck -11.6789 -0.549244 -2.25853
upperneck 31.6315 0.363567 -1.83906
head 12.3881 -0.338299 -0.254505
rclavicle -4.84538e-015 -7.95139e-016
rhumerus -27.6803 -5.47599 -75.2499
rradius 36.0983
rwrist -1.18814
rhand -13.912 9.87214
rfingers 7.12502
rthumb 12.214 -19.7512
lclavicle -4.84538e-015 -7.95139e-016
lhumerus -42.2916 2.75256 88.7264
lradius 40.6674
lwrist 6.2703
lhand -12.8378 50.7049
lfingers 7.12502
lthumb 13.2495 80.2638
rfemur 13.5647 7.52201 37.0861
rtibia 23.076
rfoot -16.7113 -11.7649
rtoes -0.297131
lfemur -26.009 -7.15392 -9.46614
ltibia 21.8791
lfoot -12.1895 9.39104
ltoes -19.8842
